/* XPM */
static char * filezoomout[] = {
/* width height num_colors chars_per_pixel */
"16 16 3 1",
/* colors */
" 	c None",
".	c black",
"X	c white",
/* pixels */
"                ",
"                ",
"   ....         ",
"  .    .        ",
" .  X   .       ",
" . X    .  .....",
" .      .  .....",
" .      .       ",
"  .    ..       ",
"   .......      ",
"        ...     ",
"         ...    ",
"          ...   ",
"           ..   ",
"                ",
"                "};
